<?xml version="1.0" encoding="UTF-8"?><svg id="Layer_1" xmlns="http://www.w3.org/2000/svg" viewBox="0 0 512 512"><path d="M430.23,115.48c-14.42-10.07-51.66,46.11-124.26,87.73-3.92,2.25-12.63,7.14-16.13,16.77-9.33,25.7,23.27,71.89,50.82,72.94,52.92,2.03,112.35-161.54,89.58-177.44Z"/><path d="M98.93,47.38c18.04-4.12,24.84,50.42,94.97,102.56,24.1,17.92,36.72,21.46,42.14,37.81,12.99,39.11-30.72,104.71-71.68,102.35-25.06-1.44-41.92-27.91-52.41-44.38-50.83-79.8-38.27-192.58-13.02-198.34Z"/><path d="M425.91,240.09c-37.79-100.54-189.46-116.79-269.69-70.85-11.6,6.64-60.57,34.85-74.35,92.05-7.57,31.41-1.04,58.88,3.98,74.09,35,101.98,144.72,152.71,234.5,119.16,87.19-32.58,134.72-136.85,105.55-214.46Zm-72.25,149.73c-44.97,17.43-92.26-20.23-108.29-55.03-7.08-15.38-12.52-39.86-3.67-46.06,12.64-8.85,40.99,29.05,94.51,33.91,16.75,1.52,27.49-.96,35.77-4.74,21.15-9.66,27.62-28.43,30.42-27.12,5.26,2.46,3.52,78.78-48.74,99.03Z"/><path d="M98.79,48.13c18.04-4.12,24.84,50.42,94.97,102.56,24.1,17.92,36.72,21.46,42.14,37.81,12.99,39.11-30.72,104.71-71.68,102.35-25.06-1.44-41.92-27.91-52.41-44.38-50.83-79.8-38.27-192.58-13.02-198.34Z"/></svg>