<svg id="visual" viewBox="0 0 900 600" width="900" height="600" xmlns="http://www.w3.org/2000/svg" xmlns:xlink="http://www.w3.org/1999/xlink" version="1.1"><rect x="0" y="0" width="900" height="600" fill="#001220"></rect><path d="M0 74L8.3 77.3C16.7 80.7 33.3 87.3 50 87.2C66.7 87 83.3 80 100 77.3C116.7 74.7 133.3 76.3 150 79.3C166.7 82.3 183.3 86.7 200 89.2C216.7 91.7 233.3 92.3 250 93.5C266.7 94.7 283.3 96.3 300 88C316.7 79.7 333.3 61.3 350 54.5C366.7 47.7 383.3 52.3 400 53.2C416.7 54 433.3 51 450 52.7C466.7 54.3 483.3 60.7 500 68.3C516.7 76 533.3 85 550 81C566.7 77 583.3 60 600 58.8C616.7 57.7 633.3 72.3 650 75.5C666.7 78.7 683.3 70.3 700 69.3C716.7 68.3 733.3 74.7 750 72.7C766.7 70.7 783.3 60.3 800 54C816.7 47.7 833.3 45.3 850 48.8C866.7 52.3 883.3 61.7 891.7 66.3L900 71L900 601L891.7 601C883.3 601 866.7 601 850 601C833.3 601 816.7 601 800 601C783.3 601 766.7 601 750 601C733.3 601 716.7 601 700 601C683.3 601 666.7 601 650 601C633.3 601 616.7 601 600 601C583.3 601 566.7 601 550 601C533.3 601 516.7 601 500 601C483.3 601 466.7 601 450 601C433.3 601 416.7 601 400 601C383.3 601 366.7 601 350 601C333.3 601 316.7 601 300 601C283.3 601 266.7 601 250 601C233.3 601 216.7 601 200 601C183.3 601 166.7 601 150 601C133.3 601 116.7 601 100 601C83.3 601 66.7 601 50 601C33.3 601 16.7 601 8.3 601L0 601Z" fill="#cf4871"></path><path d="M0 132L8.3 125.7C16.7 119.3 33.3 106.7 50 106.5C66.7 106.3 83.3 118.7 100 117.8C116.7 117 133.3 103 150 104.2C166.7 105.3 183.3 121.7 200 130.5C216.7 139.3 233.3 140.7 250 134.2C266.7 127.7 283.3 113.3 300 110.8C316.7 108.3 333.3 117.7 350 119.2C366.7 120.7 383.3 114.3 400 112.2C416.7 110 433.3 112 450 110.3C466.7 108.7 483.3 103.3 500 101.7C516.7 100 533.3 102 550 106.3C566.7 110.7 583.3 117.3 600 121.2C616.7 125 633.3 126 650 126.5C666.7 127 683.3 127 700 125.7C716.7 124.3 733.3 121.7 750 118.8C766.7 116 783.3 113 800 111.3C816.7 109.7 833.3 109.3 850 109.5C866.7 109.7 883.3 110.3 891.7 110.7L900 111L900 601L891.7 601C883.3 601 866.7 601 850 601C833.3 601 816.7 601 800 601C783.3 601 766.7 601 750 601C733.3 601 716.7 601 700 601C683.3 601 666.7 601 650 601C633.3 601 616.7 601 600 601C583.3 601 566.7 601 550 601C533.3 601 516.7 601 500 601C483.3 601 466.7 601 450 601C433.3 601 416.7 601 400 601C383.3 601 366.7 601 350 601C333.3 601 316.7 601 300 601C283.3 601 266.7 601 250 601C233.3 601 216.7 601 200 601C183.3 601 166.7 601 150 601C133.3 601 116.7 601 100 601C83.3 601 66.7 601 50 601C33.3 601 16.7 601 8.3 601L0 601Z" fill="#c63f71"></path><path d="M0 139L8.3 139.3C16.7 139.7 33.3 140.3 50 139.3C66.7 138.3 83.3 135.7 100 140.7C116.7 145.7 133.3 158.3 150 162.3C166.7 166.3 183.3 161.7 200 160.3C216.7 159 233.3 161 250 160.7C266.7 160.3 283.3 157.7 300 158.8C316.7 160 333.3 165 350 162C366.7 159 383.3 148 400 141.7C416.7 135.3 433.3 133.7 450 135.8C466.7 138 483.3 144 500 145.7C516.7 147.3 533.3 144.7 550 148C566.7 151.3 583.3 160.7 600 162.5C616.7 164.3 633.3 158.7 650 154.5C666.7 150.3 683.3 147.7 700 151.5C716.7 155.3 733.3 165.7 750 165.2C766.7 164.7 783.3 153.3 800 149.2C816.7 145 833.3 148 850 150C866.7 152 883.3 153 891.7 153.5L900 154L900 601L891.7 601C883.3 601 866.7 601 850 601C833.3 601 816.7 601 800 601C783.3 601 766.7 601 750 601C733.3 601 716.7 601 700 601C683.3 601 666.7 601 650 601C633.3 601 616.7 601 600 601C583.3 601 566.7 601 550 601C533.3 601 516.7 601 500 601C483.3 601 466.7 601 450 601C433.3 601 416.7 601 400 601C383.3 601 366.7 601 350 601C333.3 601 316.7 601 300 601C283.3 601 266.7 601 250 601C233.3 601 216.7 601 200 601C183.3 601 166.7 601 150 601C133.3 601 116.7 601 100 601C83.3 601 66.7 601 50 601C33.3 601 16.7 601 8.3 601L0 601Z" fill="#bc3671"></path><path d="M0 184L8.3 190.7C16.7 197.3 33.3 210.7 50 210.7C66.7 210.7 83.3 197.3 100 195.2C116.7 193 133.3 202 150 201.7C166.7 201.3 183.3 191.7 200 187.7C216.7 183.7 233.3 185.3 250 186.8C266.7 188.3 283.3 189.7 300 193.8C316.7 198 333.3 205 350 208.7C366.7 212.3 383.3 212.7 400 208.2C416.7 203.7 433.3 194.3 450 190.2C466.7 186 483.3 187 500 192.5C516.7 198 533.3 208 550 210.3C566.7 212.7 583.3 207.3 600 202.3C616.7 197.3 633.3 192.7 650 191.2C666.7 189.7 683.3 191.3 700 189.5C716.7 187.7 733.3 182.3 750 180.7C766.7 179 783.3 181 800 185.3C816.7 189.7 833.3 196.3 850 201C866.7 205.7 883.3 208.3 891.7 209.7L900 211L900 601L891.7 601C883.3 601 866.7 601 850 601C833.3 601 816.7 601 800 601C783.3 601 766.7 601 750 601C733.3 601 716.7 601 700 601C683.3 601 666.7 601 650 601C633.3 601 616.7 601 600 601C583.3 601 566.7 601 550 601C533.3 601 516.7 601 500 601C483.3 601 466.7 601 450 601C433.3 601 416.7 601 400 601C383.3 601 366.7 601 350 601C333.3 601 316.7 601 300 601C283.3 601 266.7 601 250 601C233.3 601 216.7 601 200 601C183.3 601 166.7 601 150 601C133.3 601 116.7 601 100 601C83.3 601 66.7 601 50 601C33.3 601 16.7 601 8.3 601L0 601Z" fill="#b12d71"></path><path d="M0 268L8.3 260.7C16.7 253.3 33.3 238.7 50 237.2C66.7 235.7 83.3 247.3 100 253.2C116.7 259 133.3 259 150 259.7C166.7 260.3 183.3 261.7 200 257C216.7 252.3 233.3 241.7 250 237.8C266.7 234 283.3 237 300 239.3C316.7 241.7 333.3 243.3 350 242.5C366.7 241.7 383.3 238.3 400 241.3C416.7 244.3 433.3 253.7 450 256.3C466.7 259 483.3 255 500 255.8C516.7 256.7 533.3 262.3 550 258C566.7 253.7 583.3 239.3 600 238.7C616.7 238 633.3 251 650 253.5C666.7 256 683.3 248 700 241C716.7 234 733.3 228 750 226.7C766.7 225.3 783.3 228.7 800 235.3C816.7 242 833.3 252 850 251.8C866.7 251.7 883.3 241.3 891.7 236.2L900 231L900 601L891.7 601C883.3 601 866.7 601 850 601C833.3 601 816.7 601 800 601C783.3 601 766.7 601 750 601C733.3 601 716.7 601 700 601C683.3 601 666.7 601 650 601C633.3 601 616.7 601 600 601C583.3 601 566.7 601 550 601C533.3 601 516.7 601 500 601C483.3 601 466.7 601 450 601C433.3 601 416.7 601 400 601C383.3 601 366.7 601 350 601C333.3 601 316.7 601 300 601C283.3 601 266.7 601 250 601C233.3 601 216.7 601 200 601C183.3 601 166.7 601 150 601C133.3 601 116.7 601 100 601C83.3 601 66.7 601 50 601C33.3 601 16.7 601 8.3 601L0 601Z" fill="#a62570"></path><path d="M0 275L8.3 273.5C16.7 272 33.3 269 50 272.3C66.7 275.7 83.3 285.3 100 292.7C116.7 300 133.3 305 150 300.7C166.7 296.3 183.3 282.7 200 276C216.7 269.3 233.3 269.7 250 270C266.7 270.3 283.3 270.7 300 270.3C316.7 270 333.3 269 350 273.8C366.7 278.7 383.3 289.3 400 295.3C416.7 301.3 433.3 302.7 450 298C466.7 293.3 483.3 282.7 500 284.2C516.7 285.7 533.3 299.3 550 302.3C566.7 305.3 583.3 297.7 600 293C616.7 288.3 633.3 286.7 650 288.5C666.7 290.3 683.3 295.7 700 292.7C716.7 289.7 733.3 278.3 750 279.2C766.7 280 783.3 293 800 294.8C816.7 296.7 833.3 287.3 850 281.2C866.7 275 883.3 272 891.7 270.5L900 269L900 601L891.7 601C883.3 601 866.7 601 850 601C833.3 601 816.7 601 800 601C783.3 601 766.7 601 750 601C733.3 601 716.7 601 700 601C683.3 601 666.7 601 650 601C633.3 601 616.7 601 600 601C583.3 601 566.7 601 550 601C533.3 601 516.7 601 500 601C483.3 601 466.7 601 450 601C433.3 601 416.7 601 400 601C383.3 601 366.7 601 350 601C333.3 601 316.7 601 300 601C283.3 601 266.7 601 250 601C233.3 601 216.7 601 200 601C183.3 601 166.7 601 150 601C133.3 601 116.7 601 100 601C83.3 601 66.7 601 50 601C33.3 601 16.7 601 8.3 601L0 601Z" fill="#9b1d70"></path><path d="M0 324L8.3 324.8C16.7 325.7 33.3 327.3 50 327.3C66.7 327.3 83.3 325.7 100 325.7C116.7 325.7 133.3 327.3 150 332.7C166.7 338 183.3 347 200 349.7C216.7 352.3 233.3 348.7 250 348.5C266.7 348.3 283.3 351.7 300 349.5C316.7 347.3 333.3 339.7 350 332.7C366.7 325.7 383.3 319.3 400 320C416.7 320.7 433.3 328.3 450 329.3C466.7 330.3 483.3 324.7 500 326.3C516.7 328 533.3 337 550 340.7C566.7 344.3 583.3 342.7 600 339.5C616.7 336.3 633.3 331.7 650 327.5C666.7 323.3 683.3 319.7 700 320.5C716.7 321.3 733.3 326.7 750 326.5C766.7 326.3 783.3 320.7 800 319.5C816.7 318.3 833.3 321.7 850 324.8C866.7 328 883.3 331 891.7 332.5L900 334L900 601L891.7 601C883.3 601 866.7 601 850 601C833.3 601 816.7 601 800 601C783.3 601 766.7 601 750 601C733.3 601 716.7 601 700 601C683.3 601 666.7 601 650 601C633.3 601 616.7 601 600 601C583.3 601 566.7 601 550 601C533.3 601 516.7 601 500 601C483.3 601 466.7 601 450 601C433.3 601 416.7 601 400 601C383.3 601 366.7 601 350 601C333.3 601 316.7 601 300 601C283.3 601 266.7 601 250 601C233.3 601 216.7 601 200 601C183.3 601 166.7 601 150 601C133.3 601 116.7 601 100 601C83.3 601 66.7 601 50 601C33.3 601 16.7 601 8.3 601L0 601Z" fill="#8f1570"></path><path d="M0 356L8.3 358.7C16.7 361.3 33.3 366.7 50 369.7C66.7 372.7 83.3 373.3 100 372.2C116.7 371 133.3 368 150 368C166.7 368 183.3 371 200 376.5C216.7 382 233.3 390 250 391.3C266.7 392.7 283.3 387.3 300 385.5C316.7 383.7 333.3 385.3 350 381.2C366.7 377 383.3 367 400 367.5C416.7 368 433.3 379 450 380.2C466.7 381.3 483.3 372.7 500 371.8C516.7 371 533.3 378 550 378.5C566.7 379 583.3 373 600 369.7C616.7 366.3 633.3 365.7 650 365.3C666.7 365 683.3 365 700 364.8C716.7 364.7 733.3 364.3 750 365.2C766.7 366 783.3 368 800 372.2C816.7 376.3 833.3 382.7 850 380.8C866.7 379 883.3 369 891.7 364L900 359L900 601L891.7 601C883.3 601 866.7 601 850 601C833.3 601 816.7 601 800 601C783.3 601 766.7 601 750 601C733.3 601 716.7 601 700 601C683.3 601 666.7 601 650 601C633.3 601 616.7 601 600 601C583.3 601 566.7 601 550 601C533.3 601 516.7 601 500 601C483.3 601 466.7 601 450 601C433.3 601 416.7 601 400 601C383.3 601 366.7 601 350 601C333.3 601 316.7 601 300 601C283.3 601 266.7 601 250 601C233.3 601 216.7 601 200 601C183.3 601 166.7 601 150 601C133.3 601 116.7 601 100 601C83.3 601 66.7 601 50 601C33.3 601 16.7 601 8.3 601L0 601Z" fill="#830e6f"></path><path d="M0 402L8.3 406.5C16.7 411 33.3 420 50 420.5C66.7 421 83.3 413 100 411.2C116.7 409.3 133.3 413.7 150 415.8C166.7 418 183.3 418 200 420.8C216.7 423.7 233.3 429.3 250 431C266.7 432.7 283.3 430.3 300 426C316.7 421.7 333.3 415.3 350 416.7C366.7 418 383.3 427 400 431.3C416.7 435.7 433.3 435.3 450 430.7C466.7 426 483.3 417 500 412.2C516.7 407.3 533.3 406.7 550 408.5C566.7 410.3 583.3 414.7 600 414.8C616.7 415 633.3 411 650 414.5C666.7 418 683.3 429 700 428.7C716.7 428.3 733.3 416.7 750 415.3C766.7 414 783.3 423 800 428.5C816.7 434 833.3 436 850 433.2C866.7 430.3 883.3 422.7 891.7 418.8L900 415L900 601L891.7 601C883.3 601 866.7 601 850 601C833.3 601 816.7 601 800 601C783.3 601 766.7 601 750 601C733.3 601 716.7 601 700 601C683.3 601 666.7 601 650 601C633.3 601 616.7 601 600 601C583.3 601 566.7 601 550 601C533.3 601 516.7 601 500 601C483.3 601 466.7 601 450 601C433.3 601 416.7 601 400 601C383.3 601 366.7 601 350 601C333.3 601 316.7 601 300 601C283.3 601 266.7 601 250 601C233.3 601 216.7 601 200 601C183.3 601 166.7 601 150 601C133.3 601 116.7 601 100 601C83.3 601 66.7 601 50 601C33.3 601 16.7 601 8.3 601L0 601Z" fill="#76086f"></path><path d="M0 480L8.3 474.8C16.7 469.7 33.3 459.3 50 456.5C66.7 453.7 83.3 458.3 100 460.5C116.7 462.7 133.3 462.3 150 463.3C166.7 464.3 183.3 466.7 200 467.7C216.7 468.7 233.3 468.3 250 468.7C266.7 469 283.3 470 300 471.8C316.7 473.7 333.3 476.3 350 474.5C366.7 472.7 383.3 466.3 400 465.2C416.7 464 433.3 468 450 468.5C466.7 469 483.3 466 500 465C516.7 464 533.3 465 550 465.7C566.7 466.3 583.3 466.7 600 466.3C616.7 466 633.3 465 650 466.7C666.7 468.3 683.3 472.7 700 475C716.7 477.3 733.3 477.7 750 473.5C766.7 469.3 783.3 460.7 800 460.2C816.7 459.7 833.3 467.3 850 467.7C866.7 468 883.3 461 891.7 457.5L900 454L900 601L891.7 601C883.3 601 866.7 601 850 601C833.3 601 816.7 601 800 601C783.3 601 766.7 601 750 601C733.3 601 716.7 601 700 601C683.3 601 666.7 601 650 601C633.3 601 616.7 601 600 601C583.3 601 566.7 601 550 601C533.3 601 516.7 601 500 601C483.3 601 466.7 601 450 601C433.3 601 416.7 601 400 601C383.3 601 366.7 601 350 601C333.3 601 316.7 601 300 601C283.3 601 266.7 601 250 601C233.3 601 216.7 601 200 601C183.3 601 166.7 601 150 601C133.3 601 116.7 601 100 601C83.3 601 66.7 601 50 601C33.3 601 16.7 601 8.3 601L0 601Z" fill="#68046e"></path><path d="M0 497L8.3 498.8C16.7 500.7 33.3 504.3 50 503.3C66.7 502.3 83.3 496.7 100 496C116.7 495.3 133.3 499.7 150 502.2C166.7 504.7 183.3 505.3 200 508.2C216.7 511 233.3 516 250 517.2C266.7 518.3 283.3 515.7 300 513.3C316.7 511 333.3 509 350 506.2C366.7 503.3 383.3 499.7 400 501.5C416.7 503.3 433.3 510.7 450 515.2C466.7 519.7 483.3 521.3 500 521C516.7 520.7 533.3 518.3 550 517.2C566.7 516 583.3 516 600 512.2C616.7 508.3 633.3 500.7 650 497.3C666.7 494 683.3 495 700 498.7C716.7 502.3 733.3 508.7 750 511.7C766.7 514.7 783.3 514.3 800 510.3C816.7 506.3 833.3 498.7 850 495.2C866.7 491.7 883.3 492.3 891.7 492.7L900 493L900 601L891.7 601C883.3 601 866.7 601 850 601C833.3 601 816.7 601 800 601C783.3 601 766.7 601 750 601C733.3 601 716.7 601 700 601C683.3 601 666.7 601 650 601C633.3 601 616.7 601 600 601C583.3 601 566.7 601 550 601C533.3 601 516.7 601 500 601C483.3 601 466.7 601 450 601C433.3 601 416.7 601 400 601C383.3 601 366.7 601 350 601C333.3 601 316.7 601 300 601C283.3 601 266.7 601 250 601C233.3 601 216.7 601 200 601C183.3 601 166.7 601 150 601C133.3 601 116.7 601 100 601C83.3 601 66.7 601 50 601C33.3 601 16.7 601 8.3 601L0 601Z" fill="#5a036c"></path><path d="M0 538L8.3 539.2C16.7 540.3 33.3 542.7 50 542C66.7 541.3 83.3 537.7 100 540.3C116.7 543 133.3 552 150 554C166.7 556 183.3 551 200 550.2C216.7 549.3 233.3 552.7 250 555.2C266.7 557.7 283.3 559.3 300 560C316.7 560.7 333.3 560.3 350 557.8C366.7 555.3 383.3 550.7 400 550.8C416.7 551 433.3 556 450 556C466.7 556 483.3 551 500 547.5C516.7 544 533.3 542 550 544.2C566.7 546.3 583.3 552.7 600 555.7C616.7 558.7 633.3 558.3 650 557.5C666.7 556.7 683.3 555.3 700 554.3C716.7 553.3 733.3 552.7 750 550.5C766.7 548.3 783.3 544.7 800 544C816.7 543.3 833.3 545.7 850 550.3C866.7 555 883.3 562 891.7 565.5L900 569L900 601L891.7 601C883.3 601 866.7 601 850 601C833.3 601 816.7 601 800 601C783.3 601 766.7 601 750 601C733.3 601 716.7 601 700 601C683.3 601 666.7 601 650 601C633.3 601 616.7 601 600 601C583.3 601 566.7 601 550 601C533.3 601 516.7 601 500 601C483.3 601 466.7 601 450 601C433.3 601 416.7 601 400 601C383.3 601 366.7 601 350 601C333.3 601 316.7 601 300 601C283.3 601 266.7 601 250 601C233.3 601 216.7 601 200 601C183.3 601 166.7 601 150 601C133.3 601 116.7 601 100 601C83.3 601 66.7 601 50 601C33.3 601 16.7 601 8.3 601L0 601Z" fill="#4a036b"></path></svg>